<svg width="300" height="200" viewBox="0 0 300 200" fill="none" xmlns="http://www.w3.org/2000/svg">
<rect width="300" height="200" fill="#F5F5F5"/>
<rect x="20" y="20" width="260" height="160" fill="#E0E0E0"/>
<svg x="130" y="70" width="40" height="60" viewBox="0 0 40 60" fill="none">
<path d="M20 5C29.3871 5 37 12.6129 37 22V38C37 47.3871 29.3871 55 20 55V5Z" fill="#999999"/>
<path d="M20 10C25.5228 10 30 14.4772 30 20V36C30 41.5228 25.5228 46 20 46V10Z" fill="#FFFFFF"/>
<svg x="15" y="15" width="10" height="10" viewBox="0 0 10 10" fill="none">
<path d="M5 2C5.55228 2 6 1.55228 6 1V0H4V1C4 1.55228 4.44772 2 5 2Z" fill="#999999"/>
</svg>
</svg>
</svg>
